<svg id="clock" version="1.1" viewBox="0 0 15 15" xmlns="http://www.w3.org/2000/svg">
 <path d="m7.5 0c-4.1 0-7.5 3.4-7.5 7.5 0 4.1 3.4 7.5 7.5 7.5 4.1 0 7.5-3.4 7.5-7.5 0-4.1-3.4-7.5-7.5-7.5zm0 14c-3.5 0-6.4-2.9-6.4-6.4 0-3.5 2.9-6.4 6.4-6.4 3.5 0 6.4 2.9 6.4 6.4 0 3.5-2.9 6.4-6.4 6.4z" fill="#4C858B"/>
<path d="m4.1 4.5h-2.4v-3.3c0-0.3-0.25-0.55-0.55-0.55-0.3 0-0.55 0.25-0.55 0.55v3.8c0 0.3 0.25 0.55 0.55 0.55h2.9c0.3 0 0.55-0.25 0.55-0.55s-0.25-0.55-0.55-0.55z" fill="#4c858b" transform="translate(5.4 4.0)"/>
</svg>
